<?xml version="1.0" standalone="no"?>
<!DOCTYPE svg PUBLIC "-//W3C//DTD SVG 1.1//EN" "http://www.w3.org/Graphics/SVG/1.1/DTD/svg11.dtd" >
<svg xmlns="http://www.w3.org/2000/svg" xmlns:xlink="http://www.w3.org/1999/xlink" version="1.1">
<metadata>
Created by FontForge 20160407 at Sat Nov  5 14:42:56 2016
 By Jimmy Wärting
Copyrighted (c) 1981, 1997 by and the property of Linotype-Hell AG and/or its subsidiaries. All Rights Reserved. All Cyrillic characters designed by DoubleAlex. Helvetica is a registered Trademark of Linotype-Hell AG and/or its subsidiaries.
</metadata>
<defs>
<font id="HelveticaNeueCyr-Bold" horiz-adv-x="556" >
  <font-face 
    font-family="HelveticaNeueCyr"
    font-weight="700"
    font-stretch="normal"
    units-per-em="1000"
    panose-1="2 0 8 3 5 0 0 2 0 4"
    ascent="800"
    descent="-200"
    x-height="516"
    cap-height="712"
    bbox="-48 -214 1088 904"
    underline-thickness="50"
    underline-position="-100"
    stemh="107"
    stemv="142"
    unicode-range="U+0020-E001"
  />
<missing-glyph horiz-adv-x="1000" 
 />
    <glyph glyph-name=".notdef" horiz-adv-x="1000" 
 />
    <glyph glyph-name="exclam" unicode="!" horiz-adv-x="278" 
d="M213 712v-190l-39 -305h-71l-39 303v192h149zM216 153v-153h-155v153h155z" />
    <glyph glyph-name="quotedbl" unicode="&#x22;" horiz-adv-x="463" 
d="M178 401h-69l-19 293h106zM354 401h-68l-19 293h106z" />
    <glyph glyph-name="numbersign" unicode="#" 
d="M157 0h-102l37 192h-89v84h105l26 141h-88v85h104l37 192h102l-37 -192h109l37 192h102l-37 -192h89v-85h-105l-26 -141h88v-84h-104l-37 -192h-102l37 192h-110zM319 276l26 141h-109l-26 -141h109z" />
    <glyph glyph-name="dollar" unicode="$" 
d="M304 789v-76c143 -3 230 -76 230 -194v-14h-133v7c0 65 -36 93 -97 100v-193l6 -1c122 -20 246 -68 246 -214c0 -131 -101 -219 -252 -221v-84h-54v84c-144 2 -256 80 -256 234l1 6h142v-9c0 -76 38 -117 113 -123v213c-117 20 -234 63 -234 202c0 141 109 198 234 207
v76h54zM250 431v180c-64 -3 -102 -37 -102 -89c0 -64 52 -77 102 -91zM304 292v-202c67 2 111 43 111 103c0 53 -35 84 -111 99z" />
    <glyph glyph-name="percent" unicode="%" horiz-adv-x="1000" 
d="M737 720l-393 -747h-89l394 747h88zM246 706c108 0 167 -67 167 -189c0 -130 -59 -200 -166 -200c-109 0 -169 69 -169 195c0 124 61 194 168 194zM245 633c-45 0 -65 -39 -65 -126c0 -84 18 -118 64 -118c47 0 66 38 66 128c0 47 -2 116 -65 116zM760 375
c108 0 167 -67 167 -189c0 -130 -59 -200 -166 -200c-109 0 -169 69 -169 195c0 124 61 194 168 194zM759 302c-45 0 -65 -39 -65 -126c0 -84 18 -118 64 -118c47 0 66 38 66 128c0 47 -2 116 -65 116z" />
    <glyph glyph-name="ampersand" unicode="&#x26;" horiz-adv-x="685" 
d="M621 344c-7 -64 -29 -127 -68 -175l145 -169h-173l-59 70c-51 -55 -125 -85 -199 -85c-124 0 -233 76 -233 210c0 101 74 173 161 211c-47 57 -67 100 -67 148c0 97 81 167 192 167c107 0 185 -72 185 -169c0 -75 -43 -137 -124 -180l92 -112c15 26 21 53 26 84h122z
M311 456c53 32 74 60 74 99c0 38 -27 66 -65 66s-66 -27 -66 -62c0 -37 33 -76 57 -103zM268 314c-66 -34 -96 -69 -96 -115c0 -53 45 -96 101 -96c43 0 81 20 118 62z" />
    <glyph glyph-name="quotesingle" unicode="'" horiz-adv-x="278" 
d="M172 401h-66l-21 293h108z" />
    <glyph glyph-name="parenleft" unicode="(" horiz-adv-x="296" 
d="M302 723c-76 -152 -111 -283 -111 -455c0 -159 42 -304 113 -446h-120c-84 126 -131 291 -131 443c0 153 43 330 131 458h118z" />
    <glyph glyph-name="parenright" unicode=")" horiz-adv-x="296" 
d="M-4 723h118c86 -132 133 -288 133 -445c0 -140 -45 -342 -131 -456h-119c78 159 111 282 111 458c0 152 -38 310 -112 443z" />
    <glyph glyph-name="asterisk" unicode="*" horiz-adv-x="407" 
d="M386 564l-118 -39l73 -98l-66 -49l-73 103l-71 -103l-67 49l74 98l-116 39l26 77l116 -44l-3 125h84l-4 -125l116 44z" />
    <glyph glyph-name="plus" unicode="+" horiz-adv-x="600" 
d="M246 0v209h-206v101h206v209h108v-209h206v-101h-206v-209h-108z" />
    <glyph glyph-name="comma" unicode="," horiz-adv-x="278" 
d="M218 156v-127c0 -116 -50 -178 -158 -195v70c47 14 68 43 71 96h-71v156h158z" />
    <glyph glyph-name="hyphen" unicode="-" horiz-adv-x="407" 
d="M354 336v-127h-301v127h301z" />
    <glyph glyph-name="period" unicode="." horiz-adv-x="278" 
d="M218 156v-156h-158v156h158z" />
    <glyph glyph-name="slash" unicode="/" horiz-adv-x="371" 
d="M260 729h122l-272 -746h-123z" />
    <glyph glyph-name="zero" unicode="0" 
d="M279 704c201 0 256 -194 256 -359c0 -222 -96 -357 -255 -357c-162 0 -259 133 -259 357c0 165 59 359 258 359zM278 587c-117 0 -117 -166 -117 -249c0 -159 38 -235 118 -235c78 0 116 79 116 242c0 167 -36 242 -117 242z" />
    <glyph glyph-name="one" unicode="1" 
d="M396 700v-700h-151v455h-170v105h18c98 0 166 38 186 140h117z" />
    <glyph glyph-name="two" unicode="2" 
d="M528 123v-123h-513c3 162 89 223 215 308c62 42 151 87 151 173c0 61 -40 101 -100 101c-74 0 -110 -49 -114 -152h-136v15c0 159 99 260 255 260c141 0 238 -87 238 -214c0 -113 -62 -163 -145 -220c-60 -41 -142 -88 -182 -148h331z" />
    <glyph glyph-name="three" unicode="3" 
d="M32 471c5 144 94 234 242 234c138 0 233 -78 233 -192c0 -68 -38 -122 -98 -138c78 -19 124 -79 124 -161c0 -133 -107 -227 -260 -227c-159 0 -259 94 -259 244v10h137c1 -86 43 -134 119 -134c70 0 116 43 116 106c0 78 -60 104 -127 104c-15 0 -21 0 -35 -1v100
c11 -1 15 -1 24 -1c82 0 122 29 122 88c0 53 -39 88 -97 88c-66 0 -104 -42 -106 -120h-135z" />
    <glyph glyph-name="four" unicode="4" 
d="M539 279v-118h-94v-161h-132v161h-300v131l304 410h128v-423h94zM313 279v260l-186 -260h186z" />
    <glyph glyph-name="five" unicode="5" 
d="M492 694v-121h-287l-27 -152c34 34 73 49 129 49c134 0 223 -91 223 -229c0 -147 -110 -252 -264 -252c-142 0 -247 75 -255 218h140c6 -61 52 -103 115 -103c71 0 121 55 121 134s-48 129 -122 129c-47 0 -78 -17 -105 -58h-127l68 385h391z" />
    <glyph glyph-name="six" unicode="6" 
d="M524 518h-135c-13 52 -44 79 -94 79c-78 0 -122 -67 -133 -208c38 52 91 79 156 79c128 0 219 -96 219 -231c1 -145 -104 -249 -249 -249c-166 0 -264 129 -264 347c0 230 103 370 273 370c126 0 210 -68 227 -187zM285 362c-64 0 -110 -55 -110 -130
c0 -76 46 -129 111 -129s113 55 113 130s-48 129 -114 129z" />
    <glyph glyph-name="seven" unicode="7" 
d="M515 694v-117c-159 -174 -218 -342 -231 -577h-147c0 166 111 441 234 566h-334v128h478z" />
    <glyph glyph-name="eight" unicode="8" 
d="M146 372c-66 22 -103 74 -103 145c0 109 100 189 235 189c136 0 235 -80 235 -189c0 -71 -36 -123 -102 -145c82 -20 131 -84 131 -171c0 -128 -105 -213 -264 -213s-263 85 -263 213c0 87 49 151 131 171zM278 599c-63 0 -105 -36 -105 -91c0 -57 42 -94 106 -94
c65 0 106 37 106 94s-41 91 -107 91zM275 321c-69 0 -118 -46 -118 -111c0 -68 49 -114 121 -114c73 0 122 45 122 113c0 67 -50 112 -125 112z" />
    <glyph glyph-name="nine" unicode="9" 
d="M29 176h135c11 -53 44 -80 96 -80c104 0 122 128 129 210c-38 -54 -81 -81 -150 -81c-129 0 -222 97 -222 231c0 143 108 250 252 250c195 0 261 -175 261 -341c0 -169 -65 -377 -270 -377c-128 0 -217 73 -231 188zM266 589c-63 0 -110 -55 -110 -128
c0 -74 46 -128 111 -128c64 0 111 54 111 127c0 74 -48 129 -112 129z" />
    <glyph glyph-name="colon" unicode=":" horiz-adv-x="278" 
d="M218 509v-156h-158v156h158zM218 156v-156h-158v156h158z" />
    <glyph glyph-name="semicolon" unicode=";" horiz-adv-x="278" 
d="M219 156v-127c0 -116 -50 -178 -158 -195v70c47 14 68 43 71 96h-71v156h158zM217 509v-156h-158v156h158z" />
    <glyph glyph-name="less" unicode="&#x3c;" horiz-adv-x="600" 
d="M40 207v105l520 200v-122l-362 -130l362 -130v-124z" />
    <glyph glyph-name="equal" unicode="=" horiz-adv-x="600" 
d="M40 308v112h520v-112h-520zM40 99v112h520v-112h-520z" />
    <glyph glyph-name="greater" unicode="&#x3e;" horiz-adv-x="600" 
d="M560 207l-520 -201v124l362 130l-362 130v122l520 -200v-105z" />
    <glyph glyph-name="question" unicode="?" 
d="M31 482c9 149 92 245 252 245c142 0 237 -82 237 -205c0 -83 -49 -135 -113 -179c-58 -40 -70 -59 -70 -129h-133c0 82 3 127 69 184c42 36 94 65 94 127c0 48 -34 80 -86 80c-79 0 -102 -55 -104 -123h-146zM347 153v-153h-155v153h155z" />
    <glyph glyph-name="at" unicode="@" horiz-adv-x="800" 
d="M694 130l29 -40c-104 -76 -194 -107 -306 -107c-110 0 -203 33 -274 99c-73 67 -113 162 -113 264c0 216 175 383 402 383c198 0 338 -124 338 -300c0 -139 -97 -263 -206 -263c-52 0 -85 28 -85 73c0 7 0 12 2 20c-28 -54 -74 -93 -138 -93c-81 0 -136 62 -136 153
c0 130 94 242 201 242c53 0 91 -19 113 -68l14 52h85l-65 -223c-7 -25 -10 -41 -10 -54c0 -25 15 -40 41 -40c65 0 128 102 128 206c0 144 -114 243 -281 243c-199 0 -347 -142 -347 -334c0 -181 138 -309 334 -309c99 0 182 29 274 96zM490 434c0 37 -22 66 -61 66
c-77 0 -122 -125 -122 -186c0 -54 23 -86 63 -86c77 0 120 147 120 206z" />
    <glyph glyph-name="A" unicode="A" horiz-adv-x="685" 
d="M423 713l271 -713h-164l-56 159h-265l-58 -159h-160l271 713h161zM436 273l-94 265l-95 -265h189z" />
    <glyph glyph-name="B" unicode="B" horiz-adv-x="704" 
d="M68 712h337c125 0 227 -53 227 -179c0 -69 -39 -121 -97 -147c74 -21 130 -75 130 -174c0 -139 -107 -212 -241 -212h-356v712zM220 591v-167h142c57 0 118 11 118 83s-58 84 -118 84h-142zM220 318v-194h157c67 0 132 13 132 97c0 86 -70 97 -140 97h-149z" />
    <glyph glyph-name="C" unicode="C" horiz-adv-x="741" 
d="M705 275c-16 -174 -124 -292 -319 -292c-207 0 -344 149 -344 374c0 207 132 372 350 372c171 0 296 -108 308 -255h-153c-16 78 -74 124 -158 124c-137 0 -190 -123 -190 -242c0 -147 73 -241 188 -241c94 0 150 56 163 160h155z" />
    <glyph glyph-name="D" unicode="D" horiz-adv-x="741" 
d="M70 0v712h288c221 0 345 -126 345 -356c0 -229 -124 -356 -345 -356h-288zM225 130h114c143 0 207 83 207 226s-66 226 -207 226h-114v-452z" />
    <glyph glyph-name="E" unicode="E" horiz-adv-x="648" 
d="M603 712v-128h-379v-155h348v-123h-348v-175h386v-131h-541v712h534z" />
    <glyph glyph-name="F" unicode="F" horiz-adv-x="593" 
d="M571 712v-131h-346v-165h301v-124h-301v-292h-156v712h502z" />
    <glyph glyph-name="G" unicode="G" horiz-adv-x="759" 
d="M703 385v-385h-99l-15 81c-55 -67 -122 -98 -214 -98c-198 0 -335 151 -335 370c0 220 144 374 350 374c162 0 285 -99 304 -249h-151c-15 75 -72 118 -155 118c-119 0 -191 -91 -191 -243c0 -155 72 -245 196 -245c98 0 166 65 170 161h-159v116h299z" />
    <glyph glyph-name="H" unicode="H" horiz-adv-x="741" 
d="M672 712v-712h-156v307h-291v-307h-156v712h156v-268h291v268h156z" />
    <glyph glyph-name="I" unicode="I" horiz-adv-x="295" 
d="M226 712v-712h-157v712h157z" />
    <glyph glyph-name="J" unicode="J" 
d="M498 712v-489c0 -156 -77 -240 -234 -240c-146 0 -238 74 -238 236v47h144v-22c0 -66 0 -135 89 -135c78 0 83 56 83 119v484h156z" />
    <glyph glyph-name="K" unicode="K" horiz-adv-x="722" 
d="M702 712l-279 -281l305 -431h-196l-216 320l-91 -90v-230h-154v712h154v-296l280 296h197z" />
    <glyph glyph-name="L" unicode="L" horiz-adv-x="593" 
d="M573 134v-134h-504v712h156v-578h348z" />
    <glyph glyph-name="M" unicode="M" horiz-adv-x="907" 
d="M69 0v712h223l166 -489l162 489h218v-712h-147v506l-175 -506h-121l-177 501v-501h-149z" />
    <glyph glyph-name="N" unicode="N" horiz-adv-x="741" 
d="M69 0v712h159l293 -477v477h150v-712h-156l-295 478v-478h-151z" />
    <glyph glyph-name="O" unicode="O" horiz-adv-x="778" 
d="M391 729c208 0 349 -151 349 -374c0 -222 -141 -372 -350 -372c-211 0 -352 149 -352 372c0 226 140 374 353 374zM389 601c-118 0 -193 -95 -193 -243c0 -153 74 -245 195 -246c118 0 191 94 191 246c0 150 -74 243 -193 243z" />
    <glyph glyph-name="P" unicode="P" horiz-adv-x="667" 
d="M70 712h307c154 0 261 -72 261 -229c0 -155 -110 -227 -253 -227h-160v-256h-155v712zM225 584v-205h139c70 0 122 23 122 102c0 76 -52 103 -121 103h-140z" />
    <glyph glyph-name="Q" unicode="Q" horiz-adv-x="778" 
d="M734 8l-73 -79l-105 95c-44 -28 -105 -41 -172 -41c-206 0 -346 148 -346 371c0 220 145 374 353 374c204 0 347 -153 347 -370c0 -111 -35 -209 -96 -266zM534 192c31 37 48 94 48 165c0 149 -74 242 -194 242c-118 0 -193 -95 -193 -244c0 -150 75 -247 192 -247
c27 0 45 4 68 14l-71 62l73 78z" />
    <glyph glyph-name="R" unicode="R" horiz-adv-x="722" 
d="M75 712h354c131 0 240 -59 240 -202c0 -83 -42 -148 -113 -175c79 -16 99 -96 105 -166c4 -45 6 -143 34 -169h-162c-18 36 -18 107 -22 146c-10 98 -40 133 -142 133h-139v-279h-155v712zM230 589v-197h148c73 0 138 13 138 101c0 82 -65 96 -131 96h-155z" />
    <glyph glyph-name="S" unicode="S" horiz-adv-x="649" 
d="M596 500h-148c-6 69 -52 106 -135 106c-72 0 -115 -30 -115 -81c0 -62 76 -67 218 -107c127 -36 208 -85 208 -204c0 -168 -148 -230 -293 -230c-193 0 -307 93 -309 254h155c3 -96 66 -134 161 -134c82 0 132 36 132 95c0 56 -48 66 -195 108c-116 33 -227 62 -227 207
c0 129 108 213 274 213c150 0 271 -68 274 -227z" />
    <glyph glyph-name="T" unicode="T" horiz-adv-x="611" 
d="M598 712v-133h-214v-579h-157v579h-214v133h585z" />
    <glyph glyph-name="U" unicode="U" horiz-adv-x="741" 
d="M675 712v-428c0 -203 -95 -298 -303 -298c-212 0 -307 97 -307 300v426h156v-426c0 -109 31 -171 153 -171c120 0 145 66 145 171v426h156z" />
    <glyph glyph-name="V" unicode="V" horiz-adv-x="630" 
d="M-8 712h163l160 -500l162 500h162l-237 -712h-177z" />
    <glyph glyph-name="W" unicode="W" horiz-adv-x="944" 
d="M3 712h157l114 -484l125 484h147l123 -490l118 490h154l-192 -712h-156l-122 486l-120 -486h-159z" />
    <glyph glyph-name="X" unicode="X" horiz-adv-x="667" 
d="M651 712l-229 -340l250 -372h-187l-156 247l-158 -247h-178l251 372l-232 340h182l142 -229l143 229h172z" />
    <glyph glyph-name="Y" unicode="Y" horiz-adv-x="667" 
d="M676 712l-265 -438v-274h-154v277l-266 435h178l166 -285l168 285h173z" />
    <glyph glyph-name="Z" unicode="Z" horiz-adv-x="648" 
d="M610 712v-119l-386 -459h399v-134h-603v127l383 452h-356v133h563z" />
    <glyph glyph-name="bracketleft" unicode="[" horiz-adv-x="333" 
d="M329 717v-109h-128v-671h128v-109h-259v889h259z" />
    <glyph glyph-name="backslash" unicode="\" horiz-adv-x="371" 
d="M113 729l273 -746h-123l-272 746h122z" />
    <glyph glyph-name="bracketright" unicode="]" horiz-adv-x="333" 
d="M4 717h259v-889h-259v109h128v671h-128v109z" />
    <glyph glyph-name="asciicircum" unicode="^" horiz-adv-x="600" 
d="M67 268l176 426h114l176 -426h-119l-117 288l-111 -288h-119z" />
    <glyph glyph-name="underscore" unicode="_" horiz-adv-x="500" 
d="M0 -125v50h500v-50h-500z" />
    <glyph glyph-name="grave" unicode="`" horiz-adv-x="259" 
d="M111 722l94 -143h-101l-152 143h159z" />
    <glyph glyph-name="a" unicode="a" horiz-adv-x="574" 
d="M534 0h-144c-7 19 -8 27 -10 50c-44 -44 -105 -65 -167 -65c-114 0 -184 59 -184 156c0 135 123 151 225 164c92 12 126 20 126 62c0 47 -30 69 -93 69c-65 0 -92 -20 -102 -79h-133c8 115 90 174 239 174c104 0 225 -24 225 -168v-223c0 -47 -1 -96 18 -140zM379 251
c-33 -19 -64 -21 -100 -27c-49 -8 -104 -14 -104 -77c0 -43 29 -69 78 -69c74 0 126 41 126 115v58z" />
    <glyph glyph-name="b" unicode="b" horiz-adv-x="611" 
d="M194 712v-259c41 51 97 75 163 75c142 0 221 -118 221 -265c0 -165 -93 -277 -229 -277c-67 0 -124 24 -162 79l1 -65h-135v712h141zM313 419c-76 0 -124 -61 -124 -158c0 -100 47 -161 124 -161c74 0 122 64 122 162c0 95 -48 157 -122 157z" />
    <glyph glyph-name="c" unicode="c" horiz-adv-x="574" 
d="M546 199c-18 -134 -110 -212 -247 -212c-159 0 -263 106 -263 267c0 167 105 277 265 277c138 0 230 -75 242 -195h-139c-10 57 -47 89 -102 89c-77 0 -123 -62 -123 -168c0 -103 44 -162 120 -162c61 0 99 36 110 104h137z" />
    <glyph glyph-name="d" unicode="d" horiz-adv-x="611" 
d="M557 0h-134v66c-34 -53 -85 -80 -156 -80c-143 0 -234 107 -234 274c0 163 89 270 226 270c61 0 124 -25 157 -78v260h141v-712zM421 259c0 100 -46 159 -123 159s-122 -59 -122 -158c0 -100 46 -160 122 -160c78 0 123 58 123 159z" />
    <glyph glyph-name="e" unicode="e" horiz-adv-x="574" 
d="M539 160c-32 -112 -125 -175 -242 -175c-159 0 -264 108 -264 270c0 160 109 276 259 276c156 0 255 -114 255 -295v-14h-370c2 -89 45 -137 121 -137c52 0 84 23 105 75h136zM403 312c-6 63 -40 116 -111 116c-63 0 -107 -44 -115 -116h226z" />
    <glyph glyph-name="f" unicode="f" horiz-adv-x="333" 
d="M335 712v-104c-22 1 -32 2 -47 2c-51 0 -63 -10 -63 -53v-41h101v-96h-100v-420h-142v420h-84v96h84v27c0 119 48 172 177 172c25 0 49 -2 74 -3z" />
    <glyph glyph-name="g" unicode="g" horiz-adv-x="611" 
d="M549 516v-462c0 -172 -86 -246 -254 -246c-149 0 -228 53 -242 161h141c11 -46 42 -66 104 -66c95 0 113 51 114 134l1 58c-39 -54 -90 -80 -158 -80c-134 0 -220 99 -220 254c0 157 90 261 226 261c72 0 116 -25 154 -83v69h134zM294 420c-75 0 -119 -56 -119 -150
c0 -91 46 -149 120 -149c73 0 119 58 119 152c0 92 -45 147 -120 147z" />
    <glyph glyph-name="h" unicode="h" horiz-adv-x="593" 
d="M195 712v-265c41 55 92 82 163 82c126 0 181 -71 181 -191v-338h-142v304c0 63 -15 109 -91 109c-94 0 -111 -74 -111 -150v-263h-140v712h140z" />
    <glyph glyph-name="i" unicode="i" horiz-adv-x="258" 
d="M200 712v-120h-142v120h142zM200 516v-516h-142v516h142z" />
    <glyph glyph-name="j" unicode="j" horiz-adv-x="278" 
d="M210 516v-517c0 -131 -36 -186 -172 -186c-17 0 -28 0 -57 2v114c12 -1 17 -1 26 -1c60 0 61 24 61 75v513h142zM210 712v-122h-142v122h142z" />
    <glyph glyph-name="k" unicode="k" horiz-adv-x="574" 
d="M555 516l-194 -191l217 -325h-172l-142 229l-58 -54v-175h-139v712h139v-381l182 185h167z" />
    <glyph glyph-name="l" unicode="l" horiz-adv-x="258" 
d="M200 712v-712h-142v712h142z" />
    <glyph glyph-name="m" unicode="m" horiz-adv-x="906" 
d="M849 0h-144v308c0 57 -9 106 -82 106c-74 0 -99 -54 -99 -124v-290h-142v314c0 55 -11 101 -78 101c-82 0 -103 -65 -103 -135v-280h-142v516h135v-71c40 56 91 85 164 85c68 0 120 -28 146 -85c41 56 96 85 169 85c116 0 176 -73 176 -183v-347z" />
    <glyph glyph-name="n" unicode="n" horiz-adv-x="593" 
d="M540 0h-144v301c0 64 -12 112 -88 112c-85 0 -112 -61 -112 -136v-277h-141v516h135v-72c41 55 98 86 171 86c109 0 179 -65 179 -185v-345z" />
    <glyph glyph-name="o" unicode="o" horiz-adv-x="611" 
d="M308 531c159 0 264 -109 264 -273c0 -166 -105 -274 -266 -274s-267 109 -267 274c0 164 107 273 269 273zM304 423c-76 0 -123 -62 -123 -165c0 -106 46 -167 125 -167c78 0 124 62 124 168c0 103 -47 164 -126 164z" />
    <glyph glyph-name="p" unicode="p" horiz-adv-x="611" 
d="M188 516v-64c38 53 94 78 160 78c139 0 230 -109 230 -275c0 -162 -89 -268 -224 -268c-65 0 -121 24 -159 77v-247h-141v699h134zM313 416c-77 0 -123 -59 -123 -159s46 -159 124 -159c76 0 122 59 122 157c0 101 -47 161 -123 161z" />
    <glyph glyph-name="q" unicode="q" horiz-adv-x="611" 
d="M558 516v-699h-141v248c-39 -53 -93 -78 -159 -78c-137 0 -225 105 -225 268c0 167 91 275 231 275c67 0 122 -22 159 -78v64h135zM295 417c-74 0 -119 -62 -119 -163c0 -98 45 -156 122 -156s123 59 123 161c0 100 -46 158 -126 158z" />
    <glyph glyph-name="r" unicode="r" horiz-adv-x="389" 
d="M389 525v-131c-25 5 -39 6 -55 6c-98 0 -136 -70 -136 -164v-236h-142v516h135v-95c32 67 90 107 167 107c11 0 17 -1 31 -3z" />
    <glyph glyph-name="s" unicode="s" horiz-adv-x="537" 
d="M490 366h-132c-8 54 -41 71 -98 71c-50 0 -80 -19 -80 -51c0 -43 44 -49 126 -66c93 -19 201 -43 201 -160c0 -108 -89 -175 -236 -175c-129 0 -240 51 -242 183h135c5 -62 45 -86 110 -86c58 0 94 25 94 64c0 44 -42 52 -116 69c-92 21 -212 35 -212 158
c0 101 82 158 226 158c118 0 220 -45 224 -165z" />
    <glyph glyph-name="t" unicode="t" horiz-adv-x="352" 
d="M338 516v-96h-105v-243c0 -50 1 -73 62 -73c15 0 26 0 43 2v-108c-39 -3 -54 -4 -86 -4c-122 0 -160 32 -160 158v268h-86v96h86v156h141v-156h105z" />
    <glyph glyph-name="u" unicode="u" horiz-adv-x="593" 
d="M538 516v-516h-135v73c-39 -57 -94 -88 -168 -88c-111 0 -180 61 -180 184v347h143v-295c0 -65 6 -117 87 -117c89 0 112 68 112 146v266h141z" />
    <glyph glyph-name="v" unicode="v" horiz-adv-x="520" 
d="M375 516h141l-175 -516h-159l-177 516h150l110 -352z" />
    <glyph glyph-name="w" unicode="w" horiz-adv-x="814" 
d="M5 516h151l96 -351l87 351h137l90 -349l96 349h145l-163 -516h-146l-92 347l-89 -347h-147z" />
    <glyph glyph-name="x" unicode="x" horiz-adv-x="537" 
d="M517 516l-170 -241l191 -275h-162l-109 167l-108 -167h-161l188 272l-171 244h162l92 -138l91 138h157z" />
    <glyph glyph-name="y" unicode="y" horiz-adv-x="519" 
d="M523 516l-190 -514c-42 -114 -66 -186 -197 -186c-44 0 -26 0 -95 1v117h69c47 0 72 26 72 69c0 5 -2 14 -4 20l-187 493h153l118 -351l114 351h147z" />
    <glyph glyph-name="z" unicode="z" horiz-adv-x="519" 
d="M479 516v-103l-272 -301h290v-112h-475v108l273 299h-252v109h436z" />
    <glyph glyph-name="braceleft" unicode="{" horiz-adv-x="333" 
d="M330 -171c-171 8 -230 65 -230 231v36c0 95 -4 134 -101 145v64c82 9 101 45 101 126v54c0 167 59 223 230 233v-64c-82 -8 -99 -48 -99 -138v-57c0 -111 -36 -171 -149 -186c119 -11 149 -86 149 -186v-58c0 -82 11 -129 99 -137v-63z" />
    <glyph glyph-name="bar" unicode="|" horiz-adv-x="223" 
d="M51 -214v1000h121v-1000h-121z" />
    <glyph glyph-name="braceright" unicode="}" horiz-adv-x="333" 
d="M330 241c-97 -11 -101 -50 -101 -145v-36c0 -166 -59 -223 -230 -231v63c88 8 99 55 99 137v58c0 100 30 175 149 186c-113 15 -149 75 -149 186v57c0 90 -17 130 -99 138v64c171 -10 230 -66 230 -233v-54c0 -81 19 -117 101 -126v-64z" />
    <glyph glyph-name="asciitilde" unicode="~" horiz-adv-x="600" 
d="M422 171c-61 0 -150 38 -211 59c-19 6 -32 10 -45 10c-38 0 -56 -39 -61 -70h-78c8 83 45 178 150 178c46 0 91 -20 135 -34c33 -11 90 -33 125 -33c40 0 54 34 60 67h78c-10 -90 -46 -177 -153 -177z" />
    <glyph glyph-name="afii10017" unicode="&#x410;" horiz-adv-x="685" 
d="M423 713l271 -713h-164l-56 159h-265l-58 -159h-160l271 713h161zM436 273l-94 265l-95 -265h189z" />
    <glyph glyph-name="afii10018" unicode="&#x411;" horiz-adv-x="704" 
d="M226 456h186c143 0 253 -72 253 -227c0 -157 -107 -229 -261 -229h-333v712h528v-129h-373v-127zM513 231c0 75 -52 102 -122 102h-165v-205h166c75 0 121 27 121 103z" />
    <glyph glyph-name="afii10019" unicode="&#x412;" horiz-adv-x="704" 
d="M68 712h337c125 0 227 -53 227 -179c0 -69 -39 -121 -97 -147c74 -21 130 -75 130 -174c0 -139 -107 -212 -241 -212h-356v712zM220 591v-167h142c57 0 118 11 118 83s-58 84 -118 84h-142zM220 318v-194h157c67 0 132 13 132 97c0 86 -70 97 -140 97h-149z" />
    <glyph glyph-name="afii10020" unicode="&#x413;" horiz-adv-x="574" 
d="M565 712v-133h-340v-579h-156v712h496z" />
    <glyph glyph-name="afii10021" unicode="&#x414;" horiz-adv-x="778" 
d="M762 -183h-151v183h-452v-183h-151v316h54c84 112 114 261 114 471v108h507v-579h79v-316zM527 133v452h-196v-12c0 -195 -32 -325 -95 -440h291z" />
    <glyph glyph-name="afii10022" unicode="&#x415;" horiz-adv-x="648" 
d="M603 712v-128h-379v-155h348v-123h-348v-175h386v-131h-541v712h534z" />
    <glyph glyph-name="afii10024" unicode="&#x416;" horiz-adv-x="1054" 
d="M375 310l-191 -310h-193l285 421l-259 291h188l247 -291v291h150v-291l247 291h188l-259 -291l285 -421h-194l-190 310l-77 -87v-223h-150v223z" />
    <glyph glyph-name="afii10025" unicode="&#x417;" horiz-adv-x="649" 
d="M610 219c0 -138 -121 -235 -280 -235c-193 0 -307 93 -309 254h155c3 -96 70 -134 154 -134c73 0 123 49 123 114c0 81 -65 100 -134 100h-54v106c12 -1 33 -1 42 -1c86 0 129 35 129 97c0 55 -43 86 -107 86c-77 0 -126 -37 -132 -106h-148c3 159 131 227 281 227
c144 0 253 -78 253 -197c0 -71 -44 -129 -108 -143c77 -12 135 -77 135 -168z" />
    <glyph glyph-name="afii10026" unicode="&#x418;" horiz-adv-x="741" 
d="M672 712v-712h-156v494h-3l-268 -494h-176v712h156v-493h3l268 493h176z" />
    <glyph glyph-name="afii10027" unicode="&#x419;" horiz-adv-x="741" 
d="M672 712v-712h-156v494h-3l-268 -494h-176v712h156v-493h3l268 493h176zM478 904h56c0 -103 -66 -144 -163 -144s-163 41 -163 144h56c9 -46 53 -66 107 -66s98 20 107 66z" />
    <glyph glyph-name="afii10028" unicode="&#x41a;" horiz-adv-x="722" 
d="M702 712l-279 -281l305 -431h-196l-216 320l-91 -90v-230h-154v712h154v-296l280 296h197z" />
    <glyph glyph-name="afii10029" unicode="&#x41b;" horiz-adv-x="722" 
d="M656 712v-712h-156v579h-191l-10 -302c-7 -202 -76 -291 -198 -291c-28 0 -67 5 -88 12v126c12 -6 35 -12 55 -12c42 0 76 21 80 167l12 433h496z" />
    <glyph glyph-name="afii10030" unicode="&#x41c;" horiz-adv-x="907" 
d="M69 0v712h223l166 -489l162 489h218v-712h-147v506l-175 -506h-121l-177 501v-501h-149z" />
    <glyph glyph-name="afii10031" unicode="&#x41d;" horiz-adv-x="741" 
d="M672 712v-712h-156v307h-291v-307h-156v712h156v-268h291v268h156z" />
    <glyph glyph-name="afii10032" unicode="&#x41e;" horiz-adv-x="778" 
d="M391 729c208 0 349 -151 349 -374c0 -222 -141 -372 -350 -372c-211 0 -352 149 -352 372c0 226 140 374 353 374zM389 601c-118 0 -193 -95 -193 -243c0 -153 74 -245 195 -246c118 0 191 94 191 246c0 150 -74 243 -193 243z" />
    <glyph glyph-name="afii10033" unicode="&#x41f;" horiz-adv-x="741" 
d="M672 712v-712h-156v579h-291v-579h-156v712h603z" />
    <glyph glyph-name="afii10034" unicode="&#x420;" horiz-adv-x="667" 
d="M70 712h307c154 0 261 -72 261 -229c0 -155 -110 -227 -253 -227h-160v-256h-155v712zM225 584v-205h139c70 0 122 23 122 102c0 76 -52 103 -121 103h-140z" />
    <glyph glyph-name="afii10035" unicode="&#x421;" horiz-adv-x="741" 
d="M705 275c-16 -174 -124 -292 -319 -292c-207 0 -344 149 -344 374c0 207 132 372 350 372c171 0 296 -108 308 -255h-153c-16 78 -74 124 -158 124c-137 0 -190 -123 -190 -242c0 -147 73 -241 188 -241c94 0 150 56 163 160h155z" />
    <glyph glyph-name="afii10036" unicode="&#x422;" horiz-adv-x="611" 
d="M598 712v-133h-214v-579h-157v579h-214v133h585z" />
    <glyph glyph-name="afii10037" unicode="&#x423;" horiz-adv-x="667" 
d="M102 3v132c19 -8 46 -16 75 -16c48 0 72 29 72 61c0 31 -19 63 -33 92l-209 440h173l161 -375l158 375h167l-240 -524c-66 -145 -122 -201 -237 -201c-38 0 -72 10 -87 16z" />
    <glyph glyph-name="afii10038" unicode="&#x424;" horiz-adv-x="848" 
d="M810 364c0 -179 -126 -279 -309 -286v-78h-154v78c-183 7 -309 107 -309 286c0 172 123 272 309 278v70h154v-70c186 -6 309 -106 309 -278zM660 364c0 101 -56 161 -159 165v-334c100 4 159 74 159 169zM347 195v334c-103 -4 -158 -64 -158 -165c0 -95 58 -165 158 -169
z" />
    <glyph glyph-name="afii10039" unicode="&#x425;" horiz-adv-x="667" 
d="M651 712l-229 -340l250 -372h-187l-156 247l-158 -247h-178l251 372l-232 340h182l142 -229l143 229h172z" />
    <glyph glyph-name="afii10040" unicode="&#x426;" horiz-adv-x="757" 
d="M749 -183h-151v183h-531v712h156v-579h291v579h156v-579h79v-316z" />
    <glyph glyph-name="afii10041" unicode="&#x427;" horiz-adv-x="667" 
d="M294 274c-160 0 -255 66 -255 249v189h156v-191c0 -86 31 -117 111 -117c43 0 118 12 141 16v292h156v-712h-156v294c-34 -7 -111 -20 -153 -20z" />
    <glyph glyph-name="afii10042" unicode="&#x428;" horiz-adv-x="1075" 
d="M67 0v712h156v-579h237v579h156v-579h237v579h156v-712h-942z" />
    <glyph glyph-name="afii10043" unicode="&#x429;" horiz-adv-x="1092" 
d="M1088 -183h-151v183h-870v712h156v-579h237v579h156v-579h237v579h156v-579h79v-316z" />
    <glyph glyph-name="afii10044" unicode="&#x42a;" horiz-adv-x="806" 
d="M206 578h-193v134h348v-256h168c143 0 253 -72 253 -227c0 -157 -107 -229 -261 -229h-315v578zM630 231c0 75 -52 102 -122 102h-147v-205h148c75 0 121 27 121 103z" />
    <glyph glyph-name="afii10045" unicode="&#x42b;" horiz-adv-x="907" 
d="M607 229c0 -157 -107 -229 -261 -229h-277v712h155v-256h130c143 0 253 -72 253 -227zM455 231c0 75 -52 102 -122 102h-109v-205h110c75 0 121 27 121 103zM683 712h156v-712h-156v712z" />
    <glyph glyph-name="afii10046" unicode="&#x42c;" horiz-adv-x="667" 
d="M643 229c0 -157 -107 -229 -261 -229h-315v712h155v-256h168c143 0 253 -72 253 -227zM491 231c0 75 -52 102 -122 102h-147v-205h148c75 0 121 27 121 103z" />
    <glyph glyph-name="afii10047" unicode="&#x42d;" horiz-adv-x="741" 
d="M698 357c0 -225 -137 -374 -344 -374c-186 0 -293 107 -316 268h156c18 -89 73 -136 159 -136c102 0 171 74 185 194h-261v123h256c-19 90 -74 166 -182 166c-78 0 -134 -40 -154 -109h-155c19 139 141 240 306 240c218 0 350 -165 350 -372z" />
    <glyph glyph-name="afii10048" unicode="&#x42e;" horiz-adv-x="1018" 
d="M659 729c191 0 321 -151 321 -374c0 -222 -130 -372 -322 -372c-181 0 -307 130 -322 329h-111v-312h-156v712h156v-273h115c29 178 148 290 319 290zM657 601c-101 0 -165 -95 -165 -243c0 -153 63 -245 167 -246c101 0 163 94 163 246c0 150 -63 243 -165 243z" />
    <glyph glyph-name="afii10049" unicode="&#x42f;" horiz-adv-x="722" 
d="M407 279l-208 -279h-196l221 288c-94 24 -163 92 -163 206c0 152 114 218 245 218h349v-712h-155v279h-93zM500 392v197h-155c-66 0 -131 -14 -131 -96c0 -88 65 -101 138 -101h148z" />
    <glyph glyph-name="dagger" unicode="&#x2020;" 
d="M532 517v-122h-186v-559h-138v559h-184v122h184v195h138v-195h186z" />
    <glyph glyph-name="degree" unicode="&#xb0;" horiz-adv-x="400" 
d="M363 541c0 -90 -73 -163 -163 -163s-163 73 -163 163s73 163 163 163s163 -73 163 -163zM272 541c0 40 -32 73 -72 73s-72 -33 -72 -73s32 -72 72 -72s72 32 72 72z" />
    <glyph glyph-name="afii10050" unicode="&#x490;" horiz-adv-x="574" 
d="M566 871v-292h-341v-579h-156v712h346v159h151z" />
    <glyph glyph-name="sterling" unicode="&#xa3;" 
d="M540 479h-140c-1 81 -39 124 -109 124c-57 0 -99 -39 -99 -92c0 -33 26 -91 44 -119h133v-82h-106c9 -30 11 -39 11 -55c0 -65 -40 -105 -85 -144c31 14 55 21 90 21c21 0 40 -3 70 -10c38 -10 47 -12 64 -12c34 0 68 15 92 42l60 -103c-44 -44 -99 -62 -161 -62
c-51 0 -74 9 -121 23c-36 10 -66 16 -90 16c-36 0 -64 -10 -107 -40l-61 91c54 45 108 83 108 162c0 23 -4 42 -17 71h-98v82h64c-29 41 -43 82 -43 126c0 121 101 203 250 203c157 0 247 -86 251 -242z" />
    <glyph glyph-name="section" unicode="&#xa7;" 
d="M494 537h-126c-4 53 -33 82 -83 82c-44 0 -74 -25 -74 -61c0 -47 31 -55 150 -117c81 -42 186 -84 186 -191c0 -66 -40 -122 -104 -145c34 -31 54 -66 54 -114c0 -105 -88 -178 -216 -178c-138 0 -221 75 -222 199h127c4 -54 31 -89 95 -89c48 0 79 26 79 66
c0 47 -46 71 -170 132c-83 41 -179 82 -179 191c0 71 41 123 107 144c-31 32 -43 62 -43 101c0 98 87 168 211 168s207 -75 208 -188zM188 391c-34 -10 -54 -35 -54 -66c0 -39 36 -56 65 -71l170 -88c32 3 54 28 54 61c0 40 -30 57 -61 73z" />
    <glyph glyph-name="bullet" unicode="&#x2022;" horiz-adv-x="501" 
d="M251 534c98 0 178 -80 178 -178s-80 -178 -178 -178c-99 0 -178 80 -178 178s79 178 178 178z" />
    <glyph glyph-name="paragraph" unicode="&#xb6;" horiz-adv-x="620" 
d="M583 631h-54v-814h-99v814h-108v-814h-99v430c-123 8 -199 96 -199 222c0 163 111 243 260 243h299v-81z" />
    <glyph glyph-name="afii10055" unicode="&#x406;" horiz-adv-x="295" 
d="M226 712v-712h-157v712h157z" />
    <glyph glyph-name="registered" unicode="&#xae;" horiz-adv-x="400" 
d="M199 729c103 0 187 -83 187 -186s-84 -187 -187 -187s-186 84 -186 187s83 186 186 186zM199 697c-85 0 -154 -69 -154 -154s69 -154 154 -154s154 69 154 154s-69 154 -154 154zM121 647h74c42 0 92 -8 92 -61c0 -26 -12 -40 -38 -49c27 -11 34 -24 35 -69
c0 -15 1 -18 5 -28h-48c-4 9 -4 13 -5 29c-1 40 -8 48 -46 48h-20v-77h-49v207zM170 555h23c32 0 45 7 45 27c0 19 -13 27 -45 27h-23v-54z" />
    <glyph glyph-name="copyright" unicode="&#xa9;" horiz-adv-x="800" 
d="M393 731c207 0 375 -168 375 -374c0 -207 -168 -374 -374 -374c-207 0 -375 167 -375 374c0 206 167 374 374 374zM393 666c-171 0 -309 -138 -309 -309s138 -309 309 -309s310 138 310 309s-139 309 -310 309zM582 296c-11 -95 -83 -159 -180 -159
c-120 0 -208 94 -208 220c0 131 82 223 200 223c103 0 180 -67 187 -162h-92c-8 50 -41 79 -89 79c-58 0 -94 -52 -94 -138c0 -87 37 -139 100 -139c52 0 74 28 84 76h92z" />
    <glyph glyph-name="trademark" unicode="&#x2122;" horiz-adv-x="1000" 
d="M216 356v288h-109v68h300v-68h-107v-288h-84zM454 356v356h120l87 -245l87 245h118v-356h-77v290l-101 -290h-56l-101 290v-290h-77z" />
    <glyph glyph-name="afii10051" unicode="&#x402;" horiz-adv-x="778" 
d="M600 165c0 101 -47 157 -123 157c-77 0 -123 -59 -123 -159v-163h-157v579h-184v133h575v-133h-234v-214c38 53 92 78 158 78c139 0 246 -112 246 -278c0 -178 -114 -309 -253 -309c-28 0 -67 5 -88 12v122c12 -6 45 -8 55 -8c76 0 128 62 128 183z" />
    <glyph glyph-name="afii10099" unicode="&#x452;" horiz-adv-x="574" 
d="M539 86c0 -165 -88 -266 -292 -274v114c96 11 150 44 150 169v69c0 63 -15 109 -91 109c-94 0 -111 -74 -111 -150v-123h-140v435h-54v96h54v181h140v-181h248v-96h-248v-128c41 55 92 82 163 82c126 0 181 -71 181 -191v-112z" />
    <glyph glyph-name="notequal" unicode="&#x2260;" horiz-adv-x="600" 
d="M502 530l-56 -110h114v-112h-171l-50 -97h221v-112h-278l-82 -163l-104 52l57 111h-113v112h170l49 97h-219v112h276l82 162z" />
    <glyph glyph-name="afii10052" unicode="&#x403;" horiz-adv-x="574" 
d="M438 902l-149 -144h-98l89 144h158zM565 712v-133h-340v-579h-156v712h496z" />
    <glyph glyph-name="afii10100" unicode="&#x453;" horiz-adv-x="453" 
d="M446 407h-249v-407h-141v516h390v-109zM392 724l-149 -143h-99l90 143h158z" />
    <glyph glyph-name="infinity" unicode="&#x221e;" horiz-adv-x="806" 
d="M761 262c0 -106 -67 -178 -165 -178c-85 0 -139 55 -193 111c-57 -57 -105 -110 -192 -110c-98 0 -167 71 -167 175s67 176 164 176c86 0 143 -57 195 -118c52 59 107 119 193 119c98 0 165 -72 165 -175zM667 259c0 47 -29 78 -72 78c-45 0 -91 -44 -126 -80
c37 -36 78 -74 128 -74c42 0 70 30 70 76zM337 258c-36 35 -83 78 -129 78c-40 0 -70 -32 -70 -77c0 -46 29 -75 73 -75s94 37 126 74z" />
    <glyph glyph-name="plusminus" unicode="&#xb1;" horiz-adv-x="600" 
d="M241 118v152h-201v111h201v155h118v-155h201v-111h-201v-152h-118zM40 -17v111h520v-111h-520z" />
    <glyph glyph-name="lessequal" unicode="&#x2264;" horiz-adv-x="600" 
d="M40 273v102l519 179v-117l-361 -113l361 -107v-117zM40 76h519v-111h-519v111z" />
    <glyph glyph-name="greaterequal" unicode="&#x2265;" horiz-adv-x="600" 
d="M559 273l-519 -173v117l360 107l-360 113v117l519 -179v-102zM559 76v-111h-519v111h519z" />
    <glyph glyph-name="afii10103" unicode="&#x456;" horiz-adv-x="258" 
d="M200 712v-120h-142v120h142zM200 516v-516h-142v516h142z" />
    <glyph glyph-name="mu" unicode="&#xb5;" horiz-adv-x="593" 
d="M57 -183v699h141v-206c0 -82 -12 -207 99 -207c92 0 100 126 100 206v207h141v-516h-127v72c-30 -50 -58 -80 -109 -80c-49 0 -82 19 -111 57v-232h-134z" />
    <glyph glyph-name="afii10098" unicode="&#x491;" horiz-adv-x="453" 
d="M446 658v-251h-249v-407h-141v516h256v142h134z" />
    <glyph glyph-name="afii10057" unicode="&#x408;" 
d="M498 712v-489c0 -156 -77 -240 -234 -240c-146 0 -238 74 -238 236v47h144v-22c0 -66 0 -135 89 -135c78 0 83 56 83 119v484h156z" />
    <glyph glyph-name="afii10053" unicode="&#x404;" horiz-adv-x="741" 
d="M463 309h-261c14 -120 83 -194 185 -194c86 0 141 47 159 136h156c-23 -161 -130 -268 -316 -268c-207 0 -344 149 -344 374c0 207 132 372 350 372c165 0 287 -101 306 -240h-155c-20 69 -76 109 -154 109c-108 0 -163 -76 -182 -166h256v-123z" />
    <glyph glyph-name="afii10101" unicode="&#x454;" horiz-adv-x="574" 
d="M542 178c-24 -121 -113 -191 -243 -191c-159 0 -263 106 -263 267c0 167 105 277 265 277c133 0 224 -70 241 -183h-141c-12 49 -48 77 -99 77c-63 0 -105 -41 -118 -113h163v-90h-166c9 -81 51 -127 118 -127c54 0 90 29 105 83h138z" />
    <glyph glyph-name="afii10056" unicode="&#x407;" horiz-adv-x="295" 
d="M226 712v-712h-157v712h157zM318 888v-116h-133v116h133zM109 888v-116h-133v116h133z" />
    <glyph glyph-name="afii10104" unicode="&#x457;" horiz-adv-x="258" 
d="M200 516v-516h-142v516h142zM299 712v-116h-133v116h133zM90 712v-116h-133v116h133z" />
    <glyph glyph-name="afii10058" unicode="&#x409;" horiz-adv-x="1054" 
d="M480 579h-171l-10 -302c-7 -202 -76 -291 -198 -291c-28 0 -67 5 -88 12v126c12 -6 35 -12 55 -12c42 0 76 21 80 167l12 433h476v-268h141c143 0 253 -60 253 -215c0 -157 -107 -229 -261 -229h-289v579zM878 227c0 65 -52 80 -122 80h-120v-174h121c75 0 121 26 121 94
z" />
    <glyph glyph-name="afii10106" unicode="&#x459;" horiz-adv-x="822" 
d="M803 165c0 -114 -83 -165 -195 -165h-237v407h-117l-6 -182c-4 -107 -10 -241 -166 -241c-20 0 -62 4 -77 10v113c10 -2 25 -5 40 -5c41 0 62 33 64 107l8 307h395v-187h102c103 0 189 -52 189 -164zM660 165c0 50 -38 64 -87 64h-61v-128h61c53 0 87 14 87 64z" />
    <glyph glyph-name="afii10059" unicode="&#x40a;" horiz-adv-x="1054" 
d="M480 307h-255v-307h-156v712h156v-268h255v268h156v-268h141c143 0 253 -60 253 -215c0 -157 -107 -229 -261 -229h-289v307zM878 227c0 65 -52 80 -122 80h-120v-174h121c75 0 121 26 121 94z" />
    <glyph glyph-name="afii10107" unicode="&#x45a;" horiz-adv-x="822" 
d="M366 229h-169v-229h-141v516h141v-187h169v187h141v-187h107c103 0 189 -52 189 -164c0 -114 -83 -165 -195 -165h-242v229zM507 229v-128h66c53 0 87 14 87 64s-38 64 -87 64h-66z" />
    <glyph glyph-name="afii10105" unicode="&#x458;" horiz-adv-x="278" 
d="M210 516v-517c0 -131 -36 -186 -172 -186c-17 0 -28 0 -57 2v114c12 -1 17 -1 26 -1c60 0 61 24 61 75v513h142zM210 712v-122h-142v122h142z" />
    <glyph glyph-name="afii10054" unicode="&#x405;" horiz-adv-x="649" 
d="M596 500h-148c-6 69 -52 106 -135 106c-72 0 -115 -30 -115 -81c0 -62 76 -67 218 -107c127 -36 208 -85 208 -204c0 -168 -148 -230 -293 -230c-193 0 -307 93 -309 254h155c3 -96 66 -134 161 -134c82 0 132 36 132 95c0 56 -48 66 -195 108c-116 33 -227 62 -227 207
c0 129 108 213 274 213c150 0 271 -68 274 -227z" />
    <glyph glyph-name="logicalnot" unicode="&#xac;" horiz-adv-x="600" 
d="M40 308v112h520v-321h-113v209h-407z" />
    <glyph glyph-name="radical" unicode="&#x221a;" horiz-adv-x="600" 
d="M583 786l-212 -1000h-131l-154 319l-49 -23l-40 85l158 65l132 -281l171 835h125z" />
    <glyph glyph-name="florin" unicode="&#x192;" 
d="M451 430l-17 -94h-99l-57 -309c-26 -143 -65 -198 -219 -198c-21 0 -33 0 -65 2l18 106c15 -1 21 -1 30 -1c55 0 73 9 87 82l60 318h-91l17 94h92l20 109c24 131 80 179 209 179c28 0 41 -1 73 -3l-20 -106c-21 2 -27 2 -38 2c-61 0 -70 -31 -80 -83l-18 -98h98z" />
    <glyph glyph-name="approxequal" unicode="&#x2248;" horiz-adv-x="600" 
d="M419 70c-61 0 -150 38 -211 59c-18 6 -32 10 -45 10c-39 0 -56 -39 -62 -70h-75c7 82 44 176 148 176c46 0 91 -20 134 -34c33 -11 91 -33 126 -33c40 0 55 34 61 67h75c-9 -89 -46 -175 -151 -175zM421 273c-61 0 -150 38 -211 59c-18 6 -32 10 -45 10
c-39 0 -56 -39 -62 -70h-75c7 82 44 176 148 176c46 0 91 -20 134 -34c33 -11 91 -33 126 -33c40 0 55 34 61 67h75c-9 -89 -46 -175 -151 -175z" />
    <glyph glyph-name="Delta" unicode="&#x2206;" horiz-adv-x="682" 
d="M390 694l284 -694h-665l272 694h109zM334 553l-168 -449h346z" />
    <glyph glyph-name="guillemotleft" unicode="&#xab;" horiz-adv-x="444" 
d="M395 454v-120l-88 -69l88 -69v-121l-156 123v133zM200 454v-118l-90 -69l90 -71v-122l-158 126v131z" />
    <glyph glyph-name="guillemotright" unicode="&#xbb;" horiz-adv-x="444" 
d="M244 456l158 -126v-132l-158 -123v118l91 70l-91 72v121zM49 455l156 -124v-132l-156 -122v117l89 70l-89 69v122z" />
    <glyph glyph-name="ellipsis" unicode="&#x2026;" horiz-adv-x="1000" 
d="M100 0v134h133v-134h-133zM433 0v134h133v-134h-133zM766 0v134h133v-134h-133z" />
    <glyph glyph-name="nbspace" unicode="&#xe001;" horiz-adv-x="278" 
 />
    <glyph glyph-name="afii10060" unicode="&#x40b;" horiz-adv-x="778" 
d="M738 0h-156v201c0 86 -31 117 -111 117c-43 0 -94 -12 -117 -16v-302h-157v579h-184v133h575v-133h-234v-151c34 7 101 20 143 20c160 0 241 -66 241 -249v-199z" />
    <glyph glyph-name="afii10108" unicode="&#x45b;" horiz-adv-x="574" 
d="M539 0h-142v164c0 63 -15 109 -91 109c-94 0 -111 -74 -111 -150v-123h-140v435h-53v96h53v181h140v-181h249v-96h-249v-128c41 55 92 82 163 82c126 0 181 -71 181 -191v-198z" />
    <glyph glyph-name="afii10061" unicode="&#x40c;" horiz-adv-x="722" 
d="M702 712l-279 -281l305 -431h-196l-216 320l-91 -90v-230h-154v712h154v-296l280 296h197zM498 902l-149 -144h-98l89 144h158z" />
    <glyph glyph-name="afii10109" unicode="&#x45c;" horiz-adv-x="574" 
d="M472 724l-149 -143h-99l90 143h158zM581 0h-172l-149 219l-63 -64v-155h-139v516h139v-204l189 204h167l-197 -199z" />
    <glyph glyph-name="afii10102" unicode="&#x455;" horiz-adv-x="537" 
d="M490 366h-132c-8 54 -41 71 -98 71c-50 0 -80 -19 -80 -51c0 -43 44 -49 126 -66c93 -19 201 -43 201 -160c0 -108 -89 -175 -236 -175c-129 0 -240 51 -242 183h135c5 -62 45 -86 110 -86c58 0 94 25 94 64c0 44 -42 52 -116 69c-92 21 -212 35 -212 158
c0 101 82 158 226 158c118 0 220 -45 224 -165z" />
    <glyph glyph-name="endash" unicode="&#x2013;" horiz-adv-x="500" 
d="M500 335v-126h-500v126h500z" />
    <glyph glyph-name="emdash" unicode="&#x2014;" horiz-adv-x="1000" 
d="M1000 335v-126h-1000v126h1000z" />
    <glyph glyph-name="quotedblleft" unicode="&#x201c;" horiz-adv-x="463" 
d="M408 395h-143v125c0 96 43 175 143 192v-66c-50 -15 -65 -49 -67 -98h67v-153zM196 395h-143v125c0 96 43 175 143 192v-66c-50 -15 -65 -49 -67 -98h67v-153z" />
    <glyph glyph-name="quotedblright" unicode="&#x201d;" horiz-adv-x="463" 
d="M410 712v-125c0 -96 -43 -175 -143 -192v66c50 15 65 49 67 98h-67v153h143zM198 712v-125c0 -96 -43 -175 -143 -192v66c50 15 65 49 67 98h-67v153h143z" />
    <glyph glyph-name="quoteleft" unicode="&#x2018;" horiz-adv-x="278" 
d="M218 390h-158v122c0 107 36 181 158 200v-70c-44 -12 -69 -44 -71 -96h71v-156z" />
    <glyph glyph-name="quoteright" unicode="&#x2019;" horiz-adv-x="278" 
d="M218 590c0 -107 -36 -181 -158 -200v70c44 12 69 44 71 96h-71v156h158v-122z" />
    <glyph glyph-name="divide" unicode="&#xf7;" horiz-adv-x="600" 
d="M40 208v125h520v-125h-520zM238 8v134h124v-134h-124zM238 399v134h124v-134h-124z" />
    <glyph glyph-name="quotedblbase" unicode="&#x201e;" horiz-adv-x="463" 
d="M409 154v-125c0 -96 -43 -175 -143 -192v66c50 15 65 49 67 98h-67v153h143zM197 154v-125c0 -96 -43 -175 -143 -192v66c50 15 65 49 67 98h-67v153h143z" />
    <glyph glyph-name="afii10062" unicode="&#x40e;" horiz-adv-x="667" 
d="M461 904h56c0 -103 -66 -144 -163 -144s-163 41 -163 144h56c9 -46 53 -66 107 -66s98 20 107 66zM102 3v132c19 -8 46 -16 75 -16c48 0 72 29 72 61c0 31 -19 63 -33 92l-209 440h173l161 -375l158 375h167l-240 -524c-66 -145 -122 -201 -237 -201c-38 0 -72 10 -87 16
z" />
    <glyph glyph-name="afii10110" unicode="&#x45e;" horiz-adv-x="519" 
d="M374 712h56c0 -103 -66 -144 -163 -144s-163 41 -163 144h56c9 -46 53 -66 107 -66s98 20 107 66zM523 516l-190 -514c-42 -114 -66 -186 -197 -186c-44 0 -26 0 -95 1v117h69c47 0 72 26 72 69c0 5 -2 14 -4 20l-187 493h153l118 -351l114 351h147z" />
    <glyph glyph-name="afii10145" unicode="&#x40f;" horiz-adv-x="741" 
d="M446 0v-183h-151v183h-226v712h156v-579h291v579h156v-712h-226z" />
    <glyph glyph-name="afii10193" unicode="&#x45f;" horiz-adv-x="593" 
d="M537 0h-173v-152h-134v152h-174v516h141v-407h199v407h141v-516z" />
    <glyph glyph-name="afii61352" unicode="&#x2116;" horiz-adv-x="1046" 
d="M844 452c98 0 162 -64 162 -161c0 -98 -64 -162 -163 -162s-164 64 -164 162c0 97 66 161 165 161zM69 0v694h159l243 -439v439h150v-694h-156l-245 440v-440h-151zM999 98v-98h-301v98h301zM778 291c0 -59 25 -88 65 -88c39 0 65 29 65 88c0 58 -27 87 -66 87
c-38 0 -64 -30 -64 -87z" />
    <glyph glyph-name="afii10023" unicode="&#x401;" horiz-adv-x="648" 
d="M603 712v-128h-379v-155h348v-123h-348v-175h386v-131h-541v712h534zM506 888v-116h-133v116h133zM297 888v-116h-133v116h133z" />
    <glyph glyph-name="afii10071" unicode="&#x451;" horiz-adv-x="574" 
d="M459 712v-116h-133v116h133zM249 712v-116h-133v116h133zM539 160c-32 -112 -125 -175 -242 -175c-159 0 -264 108 -264 270c0 160 109 276 259 276c156 0 255 -114 255 -295v-14h-370c2 -89 45 -137 121 -137c52 0 84 23 105 75h136zM403 312c-6 63 -40 116 -111 116
c-63 0 -107 -44 -115 -116h226z" />
    <glyph glyph-name="afii10097" unicode="&#x44f;" horiz-adv-x="574" 
d="M517 0h-141v191h-60l-148 -191h-174l171 203c-73 12 -131 71 -131 156c0 91 71 157 171 157h312v-516zM376 293v121h-113c-65 0 -85 -21 -85 -60c0 -40 19 -61 85 -61h113z" />
    <glyph glyph-name="afii10065" unicode="&#x430;" horiz-adv-x="574" 
d="M534 0h-144c-7 19 -8 27 -10 50c-44 -44 -105 -65 -167 -65c-114 0 -184 59 -184 156c0 135 123 151 225 164c92 12 126 20 126 62c0 47 -30 69 -93 69c-65 0 -92 -20 -102 -79h-133c8 115 90 174 239 174c104 0 225 -24 225 -168v-223c0 -47 -1 -96 18 -140zM379 251
c-33 -19 -64 -21 -100 -27c-49 -8 -104 -14 -104 -77c0 -43 29 -69 78 -69c74 0 126 41 126 115v58z" />
    <glyph glyph-name="afii10066" unicode="&#x431;" horiz-adv-x="611" 
d="M570 252c0 -162 -103 -267 -269 -267c-186 0 -250 166 -250 317c0 153 19 342 208 392c60 16 139 10 153 40h135c-18 -130 -120 -147 -240 -158c-129 -12 -170 -105 -181 -206h3c25 69 86 146 204 146c132 0 237 -104 237 -264zM428 253c0 101 -45 158 -119 158
c-70 0 -116 -58 -116 -159c0 -104 45 -160 118 -160c72 0 117 57 117 161z" />
    <glyph glyph-name="afii10067" unicode="&#x432;" horiz-adv-x="574" 
d="M52 516h297c91 0 165 -38 165 -130c0 -50 -28 -87 -70 -106c53 -15 94 -55 94 -126c0 -101 -78 -154 -175 -154h-311v516zM192 309h94c42 0 84 8 84 59c0 50 -40 58 -84 58h-94v-117zM192 92h105c49 0 94 9 94 68c0 60 -49 69 -100 69h-99v-137z" />
    <glyph glyph-name="afii10068" unicode="&#x433;" horiz-adv-x="453" 
d="M446 407h-249v-407h-141v516h390v-109z" />
    <glyph glyph-name="afii10069" unicode="&#x434;" horiz-adv-x="628" 
d="M613 -152h-133v152h-340v-152h-133v261h62c30 59 65 197 65 317v90h412v-407h67v-261zM405 109v302h-139v-13c0 -109 -34 -235 -58 -289h197z" />
    <glyph glyph-name="afii10070" unicode="&#x435;" horiz-adv-x="574" 
d="M539 160c-32 -112 -125 -175 -242 -175c-159 0 -264 108 -264 270c0 160 109 276 259 276c156 0 255 -114 255 -295v-14h-370c2 -89 45 -137 121 -137c52 0 84 23 105 75h136zM403 312c-6 63 -40 116 -111 116c-63 0 -107 -44 -115 -116h226z" />
    <glyph glyph-name="afii10072" unicode="&#x436;" horiz-adv-x="822" 
d="M289 217l-125 -217h-167l199 320l-176 196h162l162 -205v205h134v-205l162 205h162l-179 -199l202 -317h-167l-125 217l-55 -62v-155h-134v155z" />
    <glyph glyph-name="afii10073" unicode="&#x437;" horiz-adv-x="537" 
d="M505 153c0 -112 -97 -168 -241 -168c-129 0 -240 51 -242 183h135c5 -56 45 -86 110 -86c64 0 92 30 92 69c0 43 -27 72 -89 72h-55v89h37c60 0 98 15 98 67c0 31 -26 58 -81 58c-57 0 -90 -17 -98 -71h-132c4 120 115 165 233 165c136 0 216 -43 216 -139
c0 -59 -49 -107 -93 -114v-2c49 -6 110 -33 110 -123z" />
    <glyph glyph-name="afii10074" unicode="&#x438;" horiz-adv-x="593" 
d="M537 0h-136v349l-184 -349h-161v516h136v-349l184 349h161v-516z" />
    <glyph glyph-name="afii10075" unicode="&#x439;" horiz-adv-x="593" 
d="M403 712h56c0 -103 -66 -144 -163 -144s-163 41 -163 144h56c9 -46 53 -66 107 -66s98 20 107 66zM537 0h-136v349l-184 -349h-161v516h136v-349l184 349h161v-516z" />
    <glyph glyph-name="afii10076" unicode="&#x43a;" horiz-adv-x="574" 
d="M581 0h-172l-149 222l-63 -64v-158h-139v516h139v-204l189 204h167l-200 -200z" />
    <glyph glyph-name="afii10077" unicode="&#x43b;" horiz-adv-x="593" 
d="M534 0h-141v407h-136l-6 -182c-4 -107 -10 -241 -166 -241c-20 0 -62 4 -77 10v113c10 -2 25 -5 40 -5c41 0 62 33 64 107l8 307h414v-516z" />
    <glyph glyph-name="afii10078" unicode="&#x43c;" horiz-adv-x="722" 
d="M666 0h-134v392h-3l-101 -392h-134l-101 392h-3v-392h-134v516h206l97 -375h4l97 375h206v-516z" />
    <glyph glyph-name="afii10079" unicode="&#x43d;" horiz-adv-x="593" 
d="M537 0h-141v217h-199v-217h-141v516h141v-187h199v187h141v-516z" />
    <glyph glyph-name="afii10080" unicode="&#x43e;" horiz-adv-x="611" 
d="M572 258c0 -166 -105 -274 -266 -274s-267 109 -267 274c0 164 107 273 269 273c159 0 264 -109 264 -273zM430 259c0 103 -47 164 -126 164c-76 0 -123 -62 -123 -165c0 -106 46 -167 125 -167c78 0 124 62 124 168z" />
    <glyph glyph-name="afii10081" unicode="&#x43f;" horiz-adv-x="593" 
d="M537 0h-141v407h-199v-407h-141v516h481v-516z" />
    <glyph glyph-name="afii10082" unicode="&#x440;" horiz-adv-x="611" 
d="M188 516v-64c38 53 94 78 160 78c139 0 230 -109 230 -275c0 -162 -89 -268 -224 -268c-65 0 -121 24 -159 77v-247h-141v699h134zM313 416c-77 0 -123 -59 -123 -159s46 -159 124 -159c76 0 122 59 122 157c0 101 -47 161 -123 161z" />
    <glyph glyph-name="afii10083" unicode="&#x441;" horiz-adv-x="574" 
d="M546 199c-18 -134 -110 -212 -247 -212c-159 0 -263 106 -263 267c0 167 105 277 265 277c138 0 230 -75 242 -195h-139c-10 57 -47 89 -102 89c-77 0 -123 -62 -123 -168c0 -103 44 -162 120 -162c61 0 99 36 110 104h137z" />
    <glyph glyph-name="afii10084" unicode="&#x442;" horiz-adv-x="500" 
d="M491 407h-170v-407h-141v407h-170v109h481v-109z" />
    <glyph glyph-name="afii10085" unicode="&#x443;" horiz-adv-x="519" 
d="M523 516l-190 -514c-42 -114 -66 -186 -197 -186c-44 0 -26 0 -95 1v117h69c47 0 72 26 72 69c0 5 -2 14 -4 20l-187 493h153l118 -351l114 351h147z" />
    <glyph glyph-name="afii10086" unicode="&#x444;" horiz-adv-x="846" 
d="M810 266c0 -144 -53 -280 -207 -280c-43 0 -87 23 -107 48h-3v-217h-140v217h-3c-20 -25 -64 -48 -107 -48c-154 0 -207 136 -207 280c0 163 77 265 200 265c60 0 99 -25 114 -53h3v234h140v-234h3c15 28 54 53 114 53c123 0 200 -102 200 -265zM670 263
c0 100 -29 159 -96 159c-30 0 -68 -14 -81 -55v-222c5 -26 35 -50 77 -50c79 0 100 83 100 168zM353 145v222c-13 41 -51 55 -81 55c-67 0 -96 -59 -96 -159c0 -85 21 -168 100 -168c42 0 72 24 77 50z" />
    <glyph glyph-name="afii10087" unicode="&#x445;" horiz-adv-x="537" 
d="M517 516l-170 -241l191 -275h-162l-109 167l-108 -167h-161l188 272l-171 244h162l92 -138l91 138h157z" />
    <glyph glyph-name="afii10088" unicode="&#x446;" horiz-adv-x="603" 
d="M591 -152h-133v152h-405v516h141v-407h191v407h141v-407h65v-261z" />
    <glyph glyph-name="afii10089" unicode="&#x447;" horiz-adv-x="574" 
d="M378 302v214h141v-516h-141v203c-28 -7 -100 -23 -165 -23c-114 0 -173 69 -173 179v157h141v-128c0 -75 16 -101 79 -101c34 0 96 9 118 15z" />
    <glyph glyph-name="afii10090" unicode="&#x448;" horiz-adv-x="843" 
d="M787 0h-731v516h141v-407h154v407h141v-407h154v407h141v-516z" />
    <glyph glyph-name="afii10091" unicode="&#x449;" horiz-adv-x="855" 
d="M53 0v516h141v-407h151v407h141v-407h151v407h141v-407h65v-261h-133v152h-657z" />
    <glyph glyph-name="afii10092" unicode="&#x44a;" horiz-adv-x="648" 
d="M162 407h-154v109h294v-177h137c104 0 189 -57 189 -169c0 -114 -83 -170 -195 -170h-271v407zM302 243v-145h97c52 0 86 22 86 72s-38 73 -87 73h-96z" />
    <glyph glyph-name="afii10093" unicode="&#x44b;" horiz-adv-x="741" 
d="M553 516h141v-516h-141v516zM488 170c0 -114 -83 -170 -195 -170h-246v516h140v-177h112c104 0 189 -57 189 -169zM187 243v-145h72c52 0 86 22 86 72s-38 73 -87 73h-71z" />
    <glyph glyph-name="afii10094" unicode="&#x44c;" horiz-adv-x="537" 
d="M517 170c0 -114 -83 -170 -195 -170h-271v516h140v-177h137c104 0 189 -57 189 -169zM191 243v-145h97c52 0 86 22 86 72s-38 73 -87 73h-96z" />
    <glyph glyph-name="afii10095" unicode="&#x44d;" horiz-adv-x="574" 
d="M538 254c0 -161 -104 -267 -263 -267c-130 0 -219 70 -243 191h138c15 -54 51 -83 105 -83c67 0 109 46 118 127h-166v90h163c-13 72 -55 113 -118 113c-51 0 -87 -28 -99 -77h-141c17 113 108 183 241 183c160 0 265 -110 265 -277z" />
    <glyph glyph-name="afii10096" unicode="&#x44e;" horiz-adv-x="836" 
d="M296 220h-99v-220h-141v516h141v-196h102c21 129 111 211 249 211c154 0 249 -109 249 -273c0 -166 -95 -274 -251 -274c-146 0 -237 92 -250 236zM655 259c0 103 -40 164 -111 164c-69 0 -108 -62 -108 -165c0 -106 39 -167 110 -167c70 0 109 62 109 168z" />
    <glyph glyph-name="currency" unicode="&#xa4;" 
d="M524 173l-61 -61l-67 66c-36 -24 -73 -36 -117 -36s-85 13 -119 36l-67 -66l-61 61l66 66c-24 38 -36 73 -36 119c0 43 11 80 36 119l-66 66l61 61l66 -66c36 23 76 36 119 36c44 0 82 -14 120 -36l65 66l61 -61l-66 -66c23 -32 36 -76 36 -120c0 -43 -13 -82 -36 -118z
M382 358c0 57 -47 104 -104 104c-58 0 -104 -47 -104 -104c0 -58 47 -104 104 -104s104 46 104 104z" />
    <glyph glyph-name="hyphenminus" unicode="&#xe000;" horiz-adv-x="407" 
d="M354 336v-127h-301v127h301z" />
    <glyph glyph-name="quotesinglbase" unicode="&#x201a;" horiz-adv-x="278" 
d="M218 156v-122c0 -107 -36 -181 -158 -200v70c44 12 69 44 71 96h-71v156h158z" />
    <glyph glyph-name="daggerdbl" unicode="&#x2021;" 
d="M532 522v-118h-186v-260h186v-118h-186v-190h-137v190h-185v118h185v260h-185v118h185v190h137v-190h186z" />
    <glyph glyph-name="perthousand" unicode="&#x2030;" horiz-adv-x="1147" 
d="M656 720l-438 -748h-86l440 748h84zM587 329c91 0 143 -60 143 -166c0 -115 -50 -176 -145 -176s-146 59 -146 169c0 113 52 173 148 173zM933 330c92 0 144 -61 144 -168c0 -113 -51 -175 -145 -175c-95 0 -147 59 -147 169c0 112 53 174 148 174zM216 705
c95 0 145 -59 145 -172c0 -108 -54 -171 -147 -171s-144 60 -144 170c0 111 52 173 146 173zM585 264c-38 0 -57 -34 -57 -106c0 -74 17 -105 58 -105c37 0 54 35 54 109c0 69 -18 102 -55 102zM931 265c-38 0 -57 -35 -57 -108c0 -70 20 -104 58 -104c37 0 55 35 55 108
c0 71 -18 104 -56 104zM214 640c-37 0 -55 -37 -55 -112c0 -67 18 -100 56 -100c37 0 55 36 55 108c0 71 -17 104 -56 104z" />
    <glyph glyph-name="guilsinglleft" unicode="&#x2039;" horiz-adv-x="241" 
d="M193 453v-119l-89 -69l89 -70v-121l-156 125v132z" />
    <glyph glyph-name="guilsinglright" unicode="&#x203a;" horiz-adv-x="241" 
d="M47 455l157 -124v-134l-157 -121v117l89 71l-89 70v121z" />
    <glyph glyph-name="brokenbar" unicode="&#xa6;" horiz-adv-x="223" 
d="M58 -89v250h107v-250h-107zM58 411v250h107v-250h-107z" />
    <glyph glyph-name="periodcentered" unicode="&#xb7;" horiz-adv-x="278" 
d="M218 365v-156h-158v156h158z" />
    <glyph glyph-name="space" unicode=" " horiz-adv-x="278" 
 />
    </font>
</defs>
</svg>
